<svg width="121" height="19" viewBox="0 0 121 19" fill="none" xmlns="http://www.w3.org/2000/svg">
<path d="M8.54156 15.24C7.44823 15.24 6.42823 15.06 5.48156 14.7C4.54823 14.34 3.7349 13.8333 3.04156 13.18C2.36156 12.5267 1.82823 11.76 1.44156 10.88C1.06823 10 0.881563 9.04 0.881563 8C0.881563 6.96 1.06823 6 1.44156 5.12C1.82823 4.24 2.36823 3.47333 3.06156 2.82C3.7549 2.16667 4.56823 1.66 5.50156 1.3C6.4349 0.939999 7.44823 0.76 8.54156 0.76C9.64823 0.76 10.6616 0.939999 11.5816 1.3C12.5149 1.66 13.3216 2.16667 14.0016 2.82C14.6949 3.46 15.2349 4.22 15.6216 5.1C16.0082 5.98 16.2016 6.94667 16.2016 8C16.2016 9.04 16.0082 10.0067 15.6216 10.9C15.2349 11.78 14.6949 12.5467 14.0016 13.2C13.3216 13.84 12.5149 14.34 11.5816 14.7C10.6616 15.06 9.64823 15.24 8.54156 15.24ZM13.1216 18.22C12.5749 18.22 12.0549 18.16 11.5616 18.04C11.0816 17.92 10.6016 17.7267 10.1216 17.46C9.6549 17.1933 9.16156 16.8333 8.64156 16.38C8.1349 15.9267 7.58156 15.3667 6.98156 14.7L10.3816 13.84C10.7416 14.3333 11.0749 14.7267 11.3816 15.02C11.6882 15.3133 11.9816 15.52 12.2616 15.64C12.5549 15.76 12.8616 15.82 13.1816 15.82C14.0349 15.82 14.7949 15.4733 15.4616 14.78L16.9016 16.5C15.9549 17.6467 14.6949 18.22 13.1216 18.22ZM8.54156 12.48C9.16823 12.48 9.74156 12.3733 10.2616 12.16C10.7949 11.9467 11.2616 11.64 11.6616 11.24C12.0616 10.84 12.3682 10.3667 12.5816 9.82C12.8082 9.26 12.9216 8.65333 12.9216 8C12.9216 7.33333 12.8082 6.72667 12.5816 6.18C12.3682 5.63333 12.0616 5.16 11.6616 4.76C11.2616 4.36 10.7949 4.05333 10.2616 3.84C9.74156 3.62667 9.16823 3.52 8.54156 3.52C7.9149 3.52 7.3349 3.62667 6.80156 3.84C6.26823 4.05333 5.80156 4.36 5.40156 4.76C5.0149 5.16 4.70823 5.63333 4.48156 6.18C4.26823 6.72667 4.16156 7.33333 4.16156 8C4.16156 8.65333 4.26823 9.26 4.48156 9.82C4.70823 10.3667 5.0149 10.84 5.40156 11.24C5.80156 11.64 6.26823 11.9467 6.80156 12.16C7.3349 12.3733 7.9149 12.48 8.54156 12.48ZM24.8566 15.24C22.8699 15.24 21.3166 14.6867 20.1966 13.58C19.0766 12.4733 18.5166 10.8933 18.5166 8.84V0.999999H21.7566V8.72C21.7566 10.0533 22.0299 11.0133 22.5766 11.6C23.1232 12.1867 23.8899 12.48 24.8766 12.48C25.8632 12.48 26.6299 12.1867 27.1766 11.6C27.7232 11.0133 27.9966 10.0533 27.9966 8.72V0.999999H31.1966V8.84C31.1966 10.8933 30.6366 12.4733 29.5166 13.58C28.3966 14.6867 26.8432 15.24 24.8566 15.24ZM34.3983 15V0.999999H37.6383V15H34.3983ZM40.9608 15V0.999999H47.3208C48.8408 0.999999 50.1808 1.29333 51.3408 1.88C52.5008 2.45333 53.4074 3.26 54.0608 4.3C54.7141 5.34 55.0408 6.57333 55.0408 8C55.0408 9.41333 54.7141 10.6467 54.0608 11.7C53.4074 12.74 52.5008 13.5533 51.3408 14.14C50.1808 14.7133 48.8408 15 47.3208 15H40.9608ZM44.2008 12.34H47.1608C48.0941 12.34 48.9008 12.1667 49.5808 11.82C50.2741 11.46 50.8074 10.9533 51.1808 10.3C51.5674 9.64667 51.7608 8.88 51.7608 8C51.7608 7.10667 51.5674 6.34 51.1808 5.7C50.8074 5.04667 50.2741 4.54667 49.5808 4.2C48.9008 3.84 48.0941 3.66 47.1608 3.66H44.2008V12.34ZM57.4842 15V0.999999H63.8442C65.3642 0.999999 66.7042 1.29333 67.8642 1.88C69.0242 2.45333 69.9309 3.26 70.5842 4.3C71.2376 5.34 71.5642 6.57333 71.5642 8C71.5642 9.41333 71.2376 10.6467 70.5842 11.7C69.9309 12.74 69.0242 13.5533 67.8642 14.14C66.7042 14.7133 65.3642 15 63.8442 15H57.4842ZM60.7242 12.34H63.6842C64.6176 12.34 65.4242 12.1667 66.1042 11.82C66.7976 11.46 67.3309 10.9533 67.7042 10.3C68.0909 9.64667 68.2842 8.88 68.2842 8C68.2842 7.10667 68.0909 6.34 67.7042 5.7C67.3309 5.04667 66.7976 4.54667 66.1042 4.2C65.4242 3.84 64.6176 3.66 63.6842 3.66H60.7242V12.34ZM74.0077 15V0.999999H77.2477V15H74.0077ZM83.4702 15V3.64H78.9902V0.999999H91.1902V3.64H86.7102V15H83.4702ZM99.4381 15.24C98.3581 15.24 97.3515 15.0667 96.4181 14.72C95.4981 14.36 94.6981 13.8533 94.0181 13.2C93.3381 12.5467 92.8048 11.78 92.4181 10.9C92.0448 10.02 91.8581 9.05333 91.8581 8C91.8581 6.94667 92.0448 5.98 92.4181 5.1C92.8048 4.22 93.3381 3.45333 94.0181 2.8C94.7115 2.14667 95.5181 1.64667 96.4381 1.3C97.3581 0.939999 98.3648 0.76 99.4581 0.76C100.671 0.76 101.765 0.973333 102.738 1.4C103.725 1.81333 104.551 2.42667 105.218 3.24L103.138 5.16C102.658 4.61333 102.125 4.20667 101.538 3.94C100.951 3.66 100.311 3.52 99.6181 3.52C98.9648 3.52 98.3648 3.62667 97.8181 3.84C97.2715 4.05333 96.7981 4.36 96.3981 4.76C95.9981 5.16 95.6848 5.63333 95.4581 6.18C95.2448 6.72667 95.1381 7.33333 95.1381 8C95.1381 8.66667 95.2448 9.27333 95.4581 9.82C95.6848 10.3667 95.9981 10.84 96.3981 11.24C96.7981 11.64 97.2715 11.9467 97.8181 12.16C98.3648 12.3733 98.9648 12.48 99.6181 12.48C100.311 12.48 100.951 12.3467 101.538 12.08C102.125 11.8 102.658 11.38 103.138 10.82L105.218 12.74C104.551 13.5533 103.725 14.1733 102.738 14.6C101.765 15.0267 100.665 15.24 99.4381 15.24ZM117.006 0.999999H120.246V15H117.006V0.999999ZM110.646 15H107.406V0.999999H110.646V15ZM117.246 9.26H110.406V6.52H117.246V9.26Z" fill="#333333"/>
</svg>
